<!--?xml version="1.0" standalone="no"?-->
              <svg id="sw-js-blob-svg" viewBox="0 0 100 100" xmlns="http://www.w3.org/2000/svg" version="1.1">
                    <defs> 
                        <linearGradient id="sw-gradient" x1="0" x2="1" y1="1" y2="0">
                            <stop id="stop1" stop-color="rgba(55, 248, 143.054, 1)" offset="0%"></stop>
                            <stop id="stop2" stop-color="rgba(62.771, 44.281, 208.013, 1)" offset="100%"></stop>
                        </linearGradient>
                    </defs>
                <path fill="url(#sw-gradient)" d="M19.8,-25.2C26.9,-22.1,34.7,-18,36.4,-12C38.2,-6,33.9,1.8,30.4,9C26.9,16.3,24.2,22.9,19.3,29C14.3,35,7.2,40.4,-0.1,40.6C-7.4,40.7,-14.8,35.7,-22,30.4C-29.2,25.1,-36.2,19.5,-38.8,12.4C-41.3,5.3,-39.5,-3.5,-35.3,-10C-31.1,-16.4,-24.6,-20.7,-18.3,-24C-12,-27.4,-6,-29.9,0.2,-30.1C6.4,-30.3,12.7,-28.3,19.8,-25.2Z" width="100%" height="100%" transform="translate(50 50)" stroke-width="0" style="transition: all 0.3s ease 0s;" stroke="url(#sw-gradient)"></path>
              </svg>